<svg width="36" height="36" xmlns="http://www.w3.org/2000/svg" xml:space="preserve" version="1.1" fill="#000000">
 <title>logo</title>

 <g>
  <title>Layer 1</title>
  <g stroke="null" id="svg_21">
   <path stroke="null" id="svg_1" d="m35.52782,35.14801l-1.68776,0l0,-2.06216c1.21241,-0.21682 2.13704,-1.29013 2.13704,-2.58054l0,-1.65968c0,-1.44617 -1.16031,-2.62291 -2.58676,-2.62291c-1.42623,0 -2.58654,1.17674 -2.58654,2.62291l0,1.65968c0,1.29038 0.9246,2.3637 2.13682,2.58054l0,2.06216l-3.67395,0l0,-6.76727l0.37088,0c0.24836,0 0.44972,-0.20185 0.44972,-0.4508l0,-3.33697c0,-0.24895 -0.20136,-0.4508 -0.44972,-0.4508l-0.37088,0l0,-11.30894l0.98815,0c0.24836,0 0.44972,-0.20185 0.44972,-0.4508l0,-3.74595c0,-0.24895 -0.20136,-0.4508 -0.44972,-0.4508l-24.53209,0c-0.24836,0 -0.44972,0.20185 -0.44972,0.4508l0,3.74595c0,0.24895 0.20136,0.4508 0.44972,0.4508l0.98837,0l0,22.31477l-3.67439,0l0,-2.06216c1.21241,-0.21682 2.13704,-1.29013 2.13704,-2.58054l0,-1.65968c0,-1.44617 -1.16031,-2.62291 -2.58676,-2.62291s-2.58676,1.17674 -2.58676,2.62291l0,1.65968c0,1.29041 0.92464,2.36372 2.13704,2.58054l0,2.06216l-1.68754,0c-0.24836,0 -0.44972,0.20185 -0.44972,0.4508s0.20136,0.4508 0.44972,0.4508l35.0781,0c0.24836,0 0.44972,-0.20185 0.44972,-0.4508s-0.20136,-0.4508 -0.44972,-0.4508zm-3.82459,-4.6427l0,-1.65968c0,-0.94914 0.75692,-1.72131 1.6871,-1.72131c0.9304,0 1.68732,0.77217 1.68732,1.72131l0,1.65968c0,0.94914 -0.75692,1.72131 -1.68732,1.72131c-0.93018,0 -1.6871,-0.77217 -1.6871,-1.72131zm-30.80357,0l0,-1.65968c0,-0.94914 0.75692,-1.72131 1.68732,-1.72131s1.68732,0.77217 1.68732,1.72131l0,1.65968c0,0.94914 -0.75692,1.72131 -1.68732,1.72131s-1.68732,-0.77217 -1.68732,-1.72131zm27.46757,4.6427l-2.49476,0l0,-4.37548c0,-0.24895 -0.20136,-0.4508 -0.44972,-0.4508l-3.81383,0c-0.24835,0 -0.44972,0.20185 -0.44972,0.4508l0,4.37548l-2.71874,0l0,-6.76727l9.92676,0l0,6.76727zm-3.3942,0l-2.91439,0l0,-3.92468l2.91439,0l0,3.92468zm4.2148,-10.10424l0,2.43537l-11.34399,0l0,-2.43537l11.34399,0zm-23.01539,-15.95648l23.63265,0l0,2.84435l-23.63265,0l0,-2.84435zm1.43809,3.74595l20.7567,0l0,11.30894l-10.97311,0c-0.24835,0 -0.44972,0.20185 -0.44972,0.4508l0,3.33697c0,0.24895 0.20137,0.4508 0.44972,0.4508l0.14691,0l0,6.76727l-9.93049,0l0,-22.31477z"/>
   <path stroke="null" id="svg_2" d="m21.46048,17.26617c0.24835,0 0.44972,-0.20185 0.44972,-0.4508l0,-1.83489c0,-0.24895 -0.20137,-0.4508 -0.44972,-0.4508s-0.44972,0.20185 -0.44972,0.4508l0,1.83489c0,0.24895 0.20136,0.4508 0.44972,0.4508z"/>
   <path stroke="null" id="svg_3" d="m24.92911,17.26617c0.24835,0 0.44972,-0.20185 0.44972,-0.4508l0,-1.83489c0,-0.24895 -0.20137,-0.4508 -0.44972,-0.4508s-0.44972,0.20185 -0.44972,0.4508l0,1.83489c0,0.24895 0.20136,0.4508 0.44972,0.4508z"/>
   <path stroke="null" id="svg_4" d="m21.46048,22.09928c0.24835,0 0.44972,-0.20185 0.44972,-0.4508l0,-1.83489c0,-0.24895 -0.20137,-0.4508 -0.44972,-0.4508s-0.44972,0.20185 -0.44972,0.4508l0,1.83489c0,0.24895 0.20136,0.4508 0.44972,0.4508z"/>
   <path stroke="null" id="svg_5" d="m24.92911,22.09928c0.24835,0 0.44972,-0.20185 0.44972,-0.4508l0,-1.83489c0,-0.24895 -0.20137,-0.4508 -0.44972,-0.4508s-0.44972,0.20185 -0.44972,0.4508l0,1.83489c0,0.24895 0.20136,0.4508 0.44972,0.4508z"/>
   <path stroke="null" id="svg_6" d="m11.04864,14.52968c-0.24835,0 -0.44972,0.20185 -0.44972,0.4508l0,1.83489c0,0.24895 0.20137,0.4508 0.44972,0.4508s0.44972,-0.20185 0.44972,-0.4508l0,-1.83489c0,-0.24895 -0.20136,-0.4508 -0.44972,-0.4508z"/>
   <path stroke="null" id="svg_7" d="m14.51728,14.52968c-0.24835,0 -0.44972,0.20185 -0.44972,0.4508l0,1.83489c0,0.24895 0.20137,0.4508 0.44972,0.4508s0.44972,-0.20185 0.44972,-0.4508l0,-1.83489c0,-0.24895 -0.20136,-0.4508 -0.44972,-0.4508z"/>
   <path stroke="null" id="svg_8" d="m17.98591,17.26617c0.24836,0 0.44972,-0.20185 0.44972,-0.4508l0,-1.83489c0,-0.24895 -0.20136,-0.4508 -0.44972,-0.4508s-0.44972,0.20185 -0.44972,0.4508l0,1.83489c0,0.24895 0.20137,0.4508 0.44972,0.4508z"/>
   <path stroke="null" id="svg_9" d="m11.04864,19.36279c-0.24835,0 -0.44972,0.20185 -0.44972,0.4508l0,1.83489c0,0.24895 0.20137,0.4508 0.44972,0.4508s0.44972,-0.20185 0.44972,-0.4508l0,-1.83489c0,-0.24895 -0.20136,-0.4508 -0.44972,-0.4508z"/>
   <path stroke="null" id="svg_10" d="m14.51728,19.36279c-0.24835,0 -0.44972,0.20185 -0.44972,0.4508l0,1.83489c0,0.24895 0.20137,0.4508 0.44972,0.4508s0.44972,-0.20185 0.44972,-0.4508l0,-1.83489c0,-0.24895 -0.20136,-0.4508 -0.44972,-0.4508z"/>
   <path stroke="null" id="svg_11" d="m11.04864,24.19589c-0.24835,0 -0.44972,0.20185 -0.44972,0.4508l0,1.83467c0,0.24895 0.20137,0.4508 0.44972,0.4508s0.44972,-0.20185 0.44972,-0.4508l0,-1.83467c0,-0.24895 -0.20136,-0.4508 -0.44972,-0.4508z"/>
   <path stroke="null" id="svg_12" d="m14.51728,24.19589c-0.24835,0 -0.44972,0.20185 -0.44972,0.4508l0,1.83467c0,0.24895 0.20137,0.4508 0.44972,0.4508s0.44972,-0.20185 0.44972,-0.4508l0,-1.83467c0,-0.24895 -0.20136,-0.4508 -0.44972,-0.4508z"/>
   <path stroke="null" id="svg_13" d="m11.04864,29.02877c-0.24835,0 -0.44972,0.20185 -0.44972,0.4508l0,1.83489c0,0.24895 0.20137,0.4508 0.44972,0.4508s0.44972,-0.20185 0.44972,-0.4508l0,-1.83489c0,-0.24895 -0.20136,-0.4508 -0.44972,-0.4508z"/>
   <path stroke="null" id="svg_14" d="m14.51728,29.02877c-0.24835,0 -0.44972,0.20185 -0.44972,0.4508l0,1.83489c0,0.24895 0.20137,0.4508 0.44972,0.4508s0.44972,-0.20185 0.44972,-0.4508l0,-1.83489c0,-0.24895 -0.20136,-0.4508 -0.44972,-0.4508z"/>
   <path stroke="null" id="svg_15" d="m17.98591,22.09928c0.24836,0 0.44972,-0.20185 0.44972,-0.4508l0,-1.83489c0,-0.24895 -0.20136,-0.4508 -0.44972,-0.4508s-0.44972,0.20185 -0.44972,0.4508l0,1.83489c0,0.24895 0.20137,0.4508 0.44972,0.4508z"/>
   <path stroke="null" id="svg_16" d="m6.76818,2.44197c-0.04831,-0.14858 -0.16974,-0.2615 -0.32104,-0.2987l-1.7319,-0.42372l-0.93743,-1.52013c-0.16381,-0.2659 -0.60123,-0.2659 -0.76505,0l-0.93743,1.52013l-1.73212,0.42372c-0.15129,0.0372 -0.27273,0.15012 -0.32104,0.2987c-0.04809,0.14858 -0.01603,0.31169 0.08476,0.43077l1.15263,1.36362l-0.13285,1.78206c-0.01164,0.15585 0.05797,0.30662 0.18402,0.39841c0.12648,0.09201 0.29052,0.1116 0.43501,0.05239l1.64955,-0.67774l1.64956,0.67774c0.05512,0.02268 0.11287,0.03368 0.17062,0.03368c0.09355,0 0.18621,-0.02927 0.26439,-0.08607c0.12604,-0.09179 0.19565,-0.24257 0.18402,-0.39841l-0.13285,-1.78206l1.15263,-1.36362c0.10057,-0.1193 0.13263,-0.28219 0.08454,-0.43077zm-2.04262,1.3524c-0.0762,0.09025 -0.11397,0.20713 -0.10518,0.32511l0.09244,1.23882l-1.14691,-0.47105c-0.05468,-0.02245 -0.11265,-0.03368 -0.17062,-0.03368s-0.11594,0.01122 -0.17062,0.03368l-1.14691,0.47105l0.09244,-1.23882c0.00878,-0.11798 -0.02898,-0.23486 -0.1054,-0.32511l-0.80128,-0.94804l1.20423,-0.29452c0.11463,-0.02817 0.21366,-0.10037 0.27581,-0.20097l0.65174,-1.057l0.65174,1.057c0.06215,0.1006 0.16118,0.17279 0.2758,0.20097l1.20423,0.29452l-0.8015,0.94804z"/>
   <path stroke="null" id="svg_17" d="m14.06514,2.44197c-0.04831,-0.14858 -0.16974,-0.2615 -0.32104,-0.2987l-1.73212,-0.42372l-0.93743,-1.52013c-0.16381,-0.2659 -0.60124,-0.2659 -0.76505,0l-0.93743,1.52013l-1.7319,0.42372c-0.1513,0.0372 -0.27273,0.15012 -0.32104,0.2987c-0.04809,0.14858 -0.01603,0.31169 0.08476,0.43077l1.15263,1.36362l-0.13307,1.78206c-0.01164,0.15585 0.05797,0.30662 0.18402,0.39841c0.07817,0.05679 0.17084,0.08607 0.26439,0.08607c0.05775,0 0.1155,-0.011 0.17062,-0.03368l1.64956,-0.67774l1.64978,0.67774c0.14471,0.05921 0.30874,0.03962 0.435,-0.05239c0.12605,-0.09179 0.19565,-0.24257 0.18402,-0.39841l-0.13307,-1.78206l1.15262,-1.36362c0.1008,-0.11908 0.13285,-0.28219 0.08476,-0.43077zm-2.04262,1.3524c-0.07642,0.09025 -0.11419,0.20713 -0.10541,0.32511l0.09245,1.23882l-1.14691,-0.47105c-0.05468,-0.02245 -0.11265,-0.03368 -0.17062,-0.03368s-0.11594,0.01122 -0.17062,0.03368l-1.1467,0.47105l0.09245,-1.23882c0.00878,-0.11798 -0.02898,-0.23486 -0.10541,-0.32511l-0.80128,-0.94804l1.20401,-0.29452c0.11463,-0.02817 0.21366,-0.10037 0.2758,-0.20097l0.65174,-1.057l0.65174,1.057c0.06214,0.1006 0.16118,0.17279 0.2758,0.20097l1.20423,0.29452l-0.80128,0.94804z"/>
   <path stroke="null" id="svg_18" d="m21.36188,2.44197c-0.04831,-0.14858 -0.16974,-0.2615 -0.32104,-0.2987l-1.7319,-0.42372l-0.93743,-1.52013c-0.16381,-0.2659 -0.60123,-0.2659 -0.76505,0l-0.93743,1.52013l-1.73212,0.42372c-0.1513,0.0372 -0.27273,0.15012 -0.32104,0.2987c-0.04809,0.14858 -0.01603,0.31169 0.08476,0.43077l1.15262,1.36362l-0.13285,1.78206c-0.01163,0.15585 0.05797,0.30662 0.18402,0.39841c0.12648,0.09201 0.29096,0.1116 0.43501,0.05239l1.64956,-0.67774l1.64956,0.67774c0.05512,0.02268 0.11287,0.03368 0.17062,0.03368c0.09355,0 0.18621,-0.02927 0.26439,-0.08607c0.12605,-0.09179 0.19565,-0.24257 0.18402,-0.39841l-0.13285,-1.78206l1.15263,-1.36362c0.10057,-0.1193 0.13263,-0.28219 0.08454,-0.43077zm-2.04262,1.3524c-0.0762,0.09025 -0.11397,0.20713 -0.10518,0.32511l0.09245,1.23882l-1.14692,-0.47105c-0.05468,-0.02245 -0.11265,-0.03368 -0.17062,-0.03368s-0.11594,0.01122 -0.17062,0.03368l-1.14691,0.47105l0.09245,-1.23882c0.00878,-0.11798 -0.02899,-0.23486 -0.10541,-0.32511l-0.80128,-0.94804l1.20423,-0.29452c0.11462,-0.02817 0.21366,-0.10037 0.2758,-0.20097l0.65174,-1.057l0.65174,1.057c0.06214,0.1006 0.16118,0.17279 0.2758,0.20097l1.20423,0.29452l-0.8015,0.94804z"/>
   <path stroke="null" id="svg_19" d="m28.65884,2.44197c-0.04831,-0.14858 -0.16974,-0.2615 -0.32104,-0.2987l-1.73212,-0.42372l-0.93743,-1.52013c-0.16381,-0.2659 -0.60123,-0.2659 -0.76505,0l-0.93743,1.52013l-1.7319,0.42372c-0.15129,0.0372 -0.27273,0.15012 -0.32104,0.2987c-0.04809,0.14858 -0.01603,0.31169 0.08476,0.43077l1.15263,1.36362l-0.13307,1.78206c-0.01164,0.15585 0.05797,0.30662 0.18402,0.39841c0.07817,0.05679 0.17084,0.08607 0.26439,0.08607c0.05775,0 0.11551,-0.011 0.17062,-0.03368l1.64956,-0.67774l1.64977,0.67774c0.14449,0.05921 0.30853,0.03962 0.43501,-0.05239c0.12604,-0.09179 0.19565,-0.24257 0.18402,-0.39841l-0.13307,-1.78206l1.15263,-1.36362c0.10079,-0.11908 0.13285,-0.28219 0.08476,-0.43077zm-2.04262,1.3524c-0.07642,0.09025 -0.11418,0.20713 -0.1054,0.32511l0.09244,1.23882l-1.14691,-0.47105c-0.05468,-0.02245 -0.11265,-0.03368 -0.17062,-0.03368s-0.11595,0.01122 -0.17062,0.03368l-1.14669,0.47105l0.09244,-1.23882c0.00878,-0.11798 -0.02898,-0.23486 -0.1054,-0.32511l-0.80128,-0.94804l1.20401,-0.29452c0.11462,-0.02817 0.21366,-0.10037 0.2758,-0.20097l0.65174,-1.057l0.65174,1.057c0.06215,0.1006 0.16118,0.17279 0.27581,0.20097l1.20423,0.29452l-0.80128,0.94804z"/>
   <path stroke="null" id="svg_20" d="m35.95558,2.44197c-0.04831,-0.14858 -0.16974,-0.2615 -0.32104,-0.2987l-1.7319,-0.42372l-0.93743,-1.52013c-0.16381,-0.2659 -0.60124,-0.2659 -0.76505,0l-0.93743,1.52013l-1.7319,0.42372c-0.1513,0.0372 -0.27273,0.15012 -0.32104,0.2987c-0.04809,0.14858 -0.01603,0.31147 0.08454,0.43077l1.15263,1.36362l-0.13285,1.78206c-0.01164,0.15585 0.05797,0.30662 0.18402,0.39841c0.12626,0.09201 0.29073,0.1116 0.435,0.05239l1.64956,-0.67774l1.64956,0.67774c0.05512,0.02268 0.11287,0.03368 0.17062,0.03368c0.09354,0 0.18621,-0.02927 0.26439,-0.08607c0.12604,-0.09179 0.19565,-0.24257 0.18402,-0.39841l-0.13285,-1.78206l1.15262,-1.36362c0.10058,-0.1193 0.13264,-0.28219 0.08454,-0.43077zm-2.04262,1.3524c-0.0762,0.09025 -0.11397,0.20713 -0.10518,0.32511l0.09245,1.23882l-1.14691,-0.47105c-0.05468,-0.02245 -0.11265,-0.03368 -0.17062,-0.03368s-0.11594,0.01122 -0.17062,0.03368l-1.14692,0.47105l0.09245,-1.23882c0.00878,-0.11798 -0.02898,-0.23486 -0.10518,-0.32511l-0.8015,-0.94804l1.20423,-0.29452c0.11462,-0.02817 0.21366,-0.10037 0.2758,-0.20097l0.65174,-1.057l0.65174,1.057c0.06214,0.1006 0.16118,0.17279 0.2758,0.20097l1.20423,0.29452l-0.8015,0.94804z"/>
  </g>
 </g>
</svg>